<mxfile host="Electron" modified="2023-11-24T08:59:28.938Z" agent="Mozilla/5.0 (Windows NT 10.0; Win64; x64) AppleWebKit/537.36 (KHTML, like Gecko) draw.io/21.6.8 Chrome/114.0.5735.289 Electron/25.5.0 Safari/537.36" etag="GL8xgDRKmBNkGre7Bqct" version="21.6.8" type="device">
  <diagram name="Page-1" id="90a13364-a465-7bf4-72fc-28e22215d7a0">
    <mxGraphModel dx="1668" dy="965" grid="1" gridSize="10" guides="1" tooltips="1" connect="1" arrows="1" fold="1" page="1" pageScale="1.5" pageWidth="1169" pageHeight="826" background="none" math="0" shadow="0">
      <root>
        <mxCell id="0" style=";html=1;" />
        <mxCell id="1" style=";html=1;" parent="0" />
        <mxCell id="8YfCgpXzdeuu5fyezBvx-144" value="&lt;b style=&quot;font-size: 25px;&quot;&gt;WB&lt;br&gt;&lt;br&gt;&lt;br&gt;&lt;br&gt;&lt;br&gt;&lt;br&gt;&lt;br&gt;&lt;br&gt;&lt;br&gt;&lt;br&gt;&lt;br&gt;&lt;br&gt;&lt;br&gt;&lt;br&gt;&lt;br&gt;&lt;br&gt;&lt;br&gt;&lt;br&gt;&lt;br&gt;&lt;/b&gt;" style="whiteSpace=wrap;html=1;shadow=0;fontSize=20;fillColor=none;strokeColor=#666666;strokeWidth=2;dashed=1;" parent="1" vertex="1">
          <mxGeometry x="1320" y="320" width="140" height="590" as="geometry" />
        </mxCell>
        <mxCell id="8YfCgpXzdeuu5fyezBvx-143" value="&lt;b style=&quot;font-size: 25px;&quot;&gt;MEM&lt;br&gt;&lt;br&gt;&lt;br&gt;&lt;br&gt;&lt;br&gt;&lt;br&gt;&lt;br&gt;&lt;br&gt;&lt;br&gt;&lt;br&gt;&lt;br&gt;&lt;br&gt;&lt;br&gt;&lt;br&gt;&lt;br&gt;&lt;br&gt;&lt;br&gt;&lt;br&gt;&lt;br&gt;&lt;/b&gt;" style="whiteSpace=wrap;html=1;shadow=0;fontSize=20;fillColor=none;strokeColor=#666666;strokeWidth=2;dashed=1;" parent="1" vertex="1">
          <mxGeometry x="1100" y="320" width="120" height="591" as="geometry" />
        </mxCell>
        <mxCell id="8YfCgpXzdeuu5fyezBvx-141" value="&lt;b style=&quot;font-size: 25px;&quot;&gt;EX&lt;br&gt;&lt;br&gt;&lt;br&gt;&lt;br&gt;&lt;br&gt;&lt;br&gt;&lt;br&gt;&lt;br&gt;&lt;br&gt;&lt;br&gt;&lt;br&gt;&lt;br&gt;&lt;br&gt;&lt;br&gt;&lt;br&gt;&lt;br&gt;&lt;br&gt;&lt;br&gt;&lt;br&gt;&lt;/b&gt;" style="whiteSpace=wrap;html=1;shadow=0;fontSize=20;fillColor=none;strokeColor=#666666;strokeWidth=2;dashed=1;" parent="1" vertex="1">
          <mxGeometry x="810" y="320" width="180" height="591" as="geometry" />
        </mxCell>
        <mxCell id="8YfCgpXzdeuu5fyezBvx-139" value="&lt;b style=&quot;font-size: 25px;&quot;&gt;ID&lt;br&gt;&lt;br&gt;&lt;br&gt;&lt;br&gt;&lt;br&gt;&lt;br&gt;&lt;br&gt;&lt;br&gt;&lt;br&gt;&lt;br&gt;&lt;br&gt;&lt;br&gt;&lt;br&gt;&lt;br&gt;&lt;br&gt;&lt;br&gt;&lt;br&gt;&lt;br&gt;&lt;br&gt;&lt;/b&gt;" style="whiteSpace=wrap;html=1;shadow=0;fontSize=20;fillColor=none;strokeColor=#666666;strokeWidth=2;dashed=1;" parent="1" vertex="1">
          <mxGeometry x="490" y="320" width="220" height="591" as="geometry" />
        </mxCell>
        <mxCell id="3a17f1ce550125da-1" value="&lt;b style=&quot;font-size: 25px;&quot;&gt;IF&lt;br&gt;&lt;br&gt;&lt;br&gt;&lt;br&gt;&lt;br&gt;&lt;br&gt;&lt;br&gt;&lt;br&gt;&lt;br&gt;&lt;br&gt;&lt;br&gt;&lt;br&gt;&lt;br&gt;&lt;br&gt;&lt;br&gt;&lt;br&gt;&lt;br&gt;&lt;br&gt;&lt;br&gt;&lt;/b&gt;" style="whiteSpace=wrap;html=1;shadow=0;fontSize=20;fillColor=none;strokeColor=#666666;strokeWidth=2;dashed=1;" parent="1" vertex="1">
          <mxGeometry x="160" y="320" width="220" height="589" as="geometry" />
        </mxCell>
        <mxCell id="8YfCgpXzdeuu5fyezBvx-16" value="" style="group" parent="1" vertex="1" connectable="0">
          <mxGeometry x="1230" y="411" width="80" height="503" as="geometry" />
        </mxCell>
        <mxCell id="8YfCgpXzdeuu5fyezBvx-5" value="MEM/WB&lt;br&gt;PIPE" style="whiteSpace=wrap;html=1;shadow=1;fontSize=18;fillColor=#f5f5f5;strokeColor=#666666;" parent="8YfCgpXzdeuu5fyezBvx-16" vertex="1">
          <mxGeometry width="80" height="426" as="geometry" />
        </mxCell>
        <mxCell id="8YfCgpXzdeuu5fyezBvx-15" value="" style="triangle;whiteSpace=wrap;html=1;direction=north;" parent="8YfCgpXzdeuu5fyezBvx-16" vertex="1">
          <mxGeometry x="20" y="410" width="40" height="16" as="geometry" />
        </mxCell>
        <mxCell id="8YfCgpXzdeuu5fyezBvx-18" value="" style="group" parent="1" vertex="1" connectable="0">
          <mxGeometry x="720" y="411" width="80" height="426" as="geometry" />
        </mxCell>
        <mxCell id="8YfCgpXzdeuu5fyezBvx-7" value="ID/EX&lt;br&gt;PIPE" style="whiteSpace=wrap;html=1;shadow=1;fontSize=18;fillColor=#f5f5f5;strokeColor=#666666;" parent="8YfCgpXzdeuu5fyezBvx-18" vertex="1">
          <mxGeometry width="80" height="426" as="geometry" />
        </mxCell>
        <mxCell id="8YfCgpXzdeuu5fyezBvx-13" value="" style="triangle;whiteSpace=wrap;html=1;direction=north;" parent="8YfCgpXzdeuu5fyezBvx-18" vertex="1">
          <mxGeometry x="20" y="410" width="40" height="16" as="geometry" />
        </mxCell>
        <mxCell id="8YfCgpXzdeuu5fyezBvx-19" value="" style="group" parent="1" vertex="1" connectable="0">
          <mxGeometry x="400" y="409" width="80" height="426" as="geometry" />
        </mxCell>
        <mxCell id="8YfCgpXzdeuu5fyezBvx-6" value="IF/ID&lt;br&gt;PIPE" style="whiteSpace=wrap;html=1;shadow=1;fontSize=18;fillColor=#f5f5f5;strokeColor=#666666;" parent="8YfCgpXzdeuu5fyezBvx-19" vertex="1">
          <mxGeometry width="80" height="426" as="geometry" />
        </mxCell>
        <mxCell id="8YfCgpXzdeuu5fyezBvx-12" value="" style="triangle;whiteSpace=wrap;html=1;direction=north;" parent="8YfCgpXzdeuu5fyezBvx-19" vertex="1">
          <mxGeometry x="20" y="410" width="40" height="16" as="geometry" />
        </mxCell>
        <mxCell id="8YfCgpXzdeuu5fyezBvx-86" value="PCU" style="whiteSpace=wrap;html=1;shadow=1;fontSize=18;fillColor=#f5f5f5;strokeColor=#666666;" parent="1" vertex="1">
          <mxGeometry x="670" y="190" width="200" height="60" as="geometry" />
        </mxCell>
        <mxCell id="8YfCgpXzdeuu5fyezBvx-91" value="" style="group" parent="1" vertex="1" connectable="0">
          <mxGeometry x="1010" y="411" width="80" height="429" as="geometry" />
        </mxCell>
        <mxCell id="8YfCgpXzdeuu5fyezBvx-2" value="EX/MEM&lt;br&gt;PIPE" style="whiteSpace=wrap;html=1;shadow=1;fontSize=18;fillColor=#f5f5f5;strokeColor=#666666;" parent="8YfCgpXzdeuu5fyezBvx-91" vertex="1">
          <mxGeometry width="80" height="429.0000000000001" as="geometry" />
        </mxCell>
        <mxCell id="8YfCgpXzdeuu5fyezBvx-14" value="" style="triangle;whiteSpace=wrap;html=1;direction=north;" parent="8YfCgpXzdeuu5fyezBvx-91" vertex="1">
          <mxGeometry x="20" y="412.887323943662" width="40" height="16.11267605633803" as="geometry" />
        </mxCell>
        <mxCell id="8Lm8nlZJwIXXHR8U6aLL-5" value="" style="group" vertex="1" connectable="0" parent="1">
          <mxGeometry x="170" y="669" width="50" height="50" as="geometry" />
        </mxCell>
        <mxCell id="8Lm8nlZJwIXXHR8U6aLL-6" value="PC&lt;br&gt;" style="whiteSpace=wrap;html=1;shadow=1;fontSize=18;fillColor=#f5f5f5;strokeColor=#666666;" vertex="1" parent="8Lm8nlZJwIXXHR8U6aLL-5">
          <mxGeometry width="50" height="50" as="geometry" />
        </mxCell>
        <mxCell id="8Lm8nlZJwIXXHR8U6aLL-7" value="" style="triangle;whiteSpace=wrap;html=1;direction=north;" vertex="1" parent="8Lm8nlZJwIXXHR8U6aLL-5">
          <mxGeometry x="10" y="41.66666666666667" width="30" height="8.333333333333334" as="geometry" />
        </mxCell>
        <mxCell id="8Lm8nlZJwIXXHR8U6aLL-23" value="" style="endArrow=classic;html=1;rounded=0;entryX=1;entryY=0.5;entryDx=0;entryDy=0;exitX=0;exitY=0.5;exitDx=0;exitDy=0;" edge="1" parent="1">
          <mxGeometry width="50" height="50" relative="1" as="geometry">
            <mxPoint x="890" y="380" as="sourcePoint" />
            <mxPoint x="610" y="380" as="targetPoint" />
          </mxGeometry>
        </mxCell>
        <mxCell id="8Lm8nlZJwIXXHR8U6aLL-24" value="&lt;font style=&quot;font-size: 16px;&quot;&gt;&lt;b&gt;ex_rdy&lt;/b&gt;&lt;/font&gt;" style="edgeLabel;html=1;align=center;verticalAlign=middle;resizable=0;points=[];labelBackgroundColor=none;" vertex="1" connectable="0" parent="8Lm8nlZJwIXXHR8U6aLL-23">
          <mxGeometry x="-0.2096" y="-1" relative="1" as="geometry">
            <mxPoint x="-19" y="-19" as="offset" />
          </mxGeometry>
        </mxCell>
        <mxCell id="8Lm8nlZJwIXXHR8U6aLL-26" value="" style="endArrow=classic;html=1;rounded=0;entryX=1;entryY=0.5;entryDx=0;entryDy=0;exitX=0;exitY=0.5;exitDx=0;exitDy=0;" edge="1" parent="1">
          <mxGeometry width="50" height="50" relative="1" as="geometry">
            <mxPoint x="590" y="380" as="sourcePoint" />
            <mxPoint x="205" y="380" as="targetPoint" />
            <Array as="points">
              <mxPoint x="305" y="380" />
            </Array>
          </mxGeometry>
        </mxCell>
        <mxCell id="8Lm8nlZJwIXXHR8U6aLL-27" value="&lt;font style=&quot;font-size: 16px;&quot;&gt;&lt;b&gt;id_rdy&lt;/b&gt;&lt;/font&gt;" style="edgeLabel;html=1;align=center;verticalAlign=middle;resizable=0;points=[];labelBackgroundColor=none;" vertex="1" connectable="0" parent="8Lm8nlZJwIXXHR8U6aLL-26">
          <mxGeometry x="-0.2096" y="-1" relative="1" as="geometry">
            <mxPoint x="30" y="-19" as="offset" />
          </mxGeometry>
        </mxCell>
        <mxCell id="8Lm8nlZJwIXXHR8U6aLL-32" style="edgeStyle=orthogonalEdgeStyle;rounded=0;orthogonalLoop=1;jettySize=auto;html=1;entryX=0.5;entryY=0;entryDx=0;entryDy=0;" edge="1" parent="1" target="8Lm8nlZJwIXXHR8U6aLL-6">
          <mxGeometry relative="1" as="geometry">
            <mxPoint x="195" y="390" as="sourcePoint" />
          </mxGeometry>
        </mxCell>
        <mxCell id="8Lm8nlZJwIXXHR8U6aLL-33" value="&lt;b&gt;&lt;font style=&quot;font-size: 16px;&quot;&gt;if_rdy&lt;/font&gt;&lt;/b&gt;" style="edgeLabel;html=1;align=center;verticalAlign=middle;resizable=0;points=[];labelBackgroundColor=none;" vertex="1" connectable="0" parent="8Lm8nlZJwIXXHR8U6aLL-32">
          <mxGeometry x="0.29" relative="1" as="geometry">
            <mxPoint x="25" y="-140" as="offset" />
          </mxGeometry>
        </mxCell>
        <mxCell id="8Lm8nlZJwIXXHR8U6aLL-34" value="" style="endArrow=classic;html=1;rounded=0;entryX=1;entryY=0.5;entryDx=0;entryDy=0;exitX=0;exitY=0.5;exitDx=0;exitDy=0;" edge="1" parent="1">
          <mxGeometry width="50" height="50" relative="1" as="geometry">
            <mxPoint x="1150" y="380" as="sourcePoint" />
            <mxPoint x="910" y="380" as="targetPoint" />
          </mxGeometry>
        </mxCell>
        <mxCell id="8Lm8nlZJwIXXHR8U6aLL-35" value="&lt;font style=&quot;font-size: 16px;&quot;&gt;&lt;b&gt;mem_rdy&lt;/b&gt;&lt;/font&gt;" style="edgeLabel;html=1;align=center;verticalAlign=middle;resizable=0;points=[];labelBackgroundColor=none;" vertex="1" connectable="0" parent="8Lm8nlZJwIXXHR8U6aLL-34">
          <mxGeometry x="-0.2096" y="-1" relative="1" as="geometry">
            <mxPoint x="-5" y="-19" as="offset" />
          </mxGeometry>
        </mxCell>
        <mxCell id="8Lm8nlZJwIXXHR8U6aLL-37" value="" style="endArrow=classic;html=1;rounded=0;entryX=1;entryY=0.5;entryDx=0;entryDy=0;exitX=0;exitY=0.5;exitDx=0;exitDy=0;" edge="1" parent="1">
          <mxGeometry width="50" height="50" relative="1" as="geometry">
            <mxPoint x="1355" y="380" as="sourcePoint" />
            <mxPoint x="1170" y="380" as="targetPoint" />
          </mxGeometry>
        </mxCell>
        <mxCell id="8Lm8nlZJwIXXHR8U6aLL-38" value="&lt;font style=&quot;font-size: 16px;&quot;&gt;&lt;b&gt;wb_rdy&lt;/b&gt;&lt;/font&gt;" style="edgeLabel;html=1;align=center;verticalAlign=middle;resizable=0;points=[];labelBackgroundColor=none;" vertex="1" connectable="0" parent="8Lm8nlZJwIXXHR8U6aLL-37">
          <mxGeometry x="-0.2096" y="-1" relative="1" as="geometry">
            <mxPoint x="-12" y="-19" as="offset" />
          </mxGeometry>
        </mxCell>
        <mxCell id="8Lm8nlZJwIXXHR8U6aLL-40" value="" style="endArrow=classic;html=1;rounded=0;exitX=1;exitY=0.5;exitDx=0;exitDy=0;entryX=0;entryY=0.375;entryDx=0;entryDy=0;entryPerimeter=0;" edge="1" parent="1" source="8Lm8nlZJwIXXHR8U6aLL-6" target="8Lm8nlZJwIXXHR8U6aLL-53">
          <mxGeometry width="50" height="50" relative="1" as="geometry">
            <mxPoint x="480" y="660" as="sourcePoint" />
            <mxPoint x="270" y="694" as="targetPoint" />
          </mxGeometry>
        </mxCell>
        <mxCell id="8Lm8nlZJwIXXHR8U6aLL-41" value="&lt;font style=&quot;font-size: 16px;&quot;&gt;&lt;b&gt;pc_vld&lt;/b&gt;&lt;/font&gt;" style="edgeLabel;html=1;align=center;verticalAlign=middle;resizable=0;points=[];labelBackgroundColor=none;" vertex="1" connectable="0" parent="8Lm8nlZJwIXXHR8U6aLL-40">
          <mxGeometry x="-0.2057" y="-1" relative="1" as="geometry">
            <mxPoint x="13" y="-16" as="offset" />
          </mxGeometry>
        </mxCell>
        <mxCell id="8Lm8nlZJwIXXHR8U6aLL-42" value="" style="endArrow=classic;html=1;rounded=0;exitX=1;exitY=0.5;exitDx=0;exitDy=0;" edge="1" parent="1">
          <mxGeometry width="50" height="50" relative="1" as="geometry">
            <mxPoint x="481" y="694.36" as="sourcePoint" />
            <mxPoint x="590" y="693.65" as="targetPoint" />
          </mxGeometry>
        </mxCell>
        <mxCell id="8Lm8nlZJwIXXHR8U6aLL-43" value="&lt;font style=&quot;font-size: 16px;&quot;&gt;&lt;b&gt;if_vld&lt;/b&gt;&lt;/font&gt;" style="edgeLabel;html=1;align=center;verticalAlign=middle;resizable=0;points=[];labelBackgroundColor=none;" vertex="1" connectable="0" parent="8Lm8nlZJwIXXHR8U6aLL-42">
          <mxGeometry x="-0.2057" y="-1" relative="1" as="geometry">
            <mxPoint y="-16" as="offset" />
          </mxGeometry>
        </mxCell>
        <mxCell id="8Lm8nlZJwIXXHR8U6aLL-44" value="" style="endArrow=classic;html=1;rounded=0;exitX=1;exitY=0.5;exitDx=0;exitDy=0;entryX=-0.019;entryY=0.676;entryDx=0;entryDy=0;entryPerimeter=0;" edge="1" parent="1" target="8YfCgpXzdeuu5fyezBvx-7">
          <mxGeometry width="50" height="50" relative="1" as="geometry">
            <mxPoint x="620" y="698.8000000000001" as="sourcePoint" />
            <mxPoint x="690" y="698.8000000000001" as="targetPoint" />
          </mxGeometry>
        </mxCell>
        <mxCell id="8Lm8nlZJwIXXHR8U6aLL-45" value="&lt;font style=&quot;font-size: 16px;&quot;&gt;&lt;b&gt;id_vld&lt;/b&gt;&lt;/font&gt;" style="edgeLabel;html=1;align=center;verticalAlign=middle;resizable=0;points=[];labelBackgroundColor=none;" vertex="1" connectable="0" parent="8Lm8nlZJwIXXHR8U6aLL-44">
          <mxGeometry x="-0.2057" y="-1" relative="1" as="geometry">
            <mxPoint y="-21" as="offset" />
          </mxGeometry>
        </mxCell>
        <mxCell id="8Lm8nlZJwIXXHR8U6aLL-46" value="" style="endArrow=classic;html=1;rounded=0;exitX=1;exitY=0.5;exitDx=0;exitDy=0;entryX=-0.03;entryY=0.778;entryDx=0;entryDy=0;entryPerimeter=0;" edge="1" parent="1" target="8Lm8nlZJwIXXHR8U6aLL-48">
          <mxGeometry width="50" height="50" relative="1" as="geometry">
            <mxPoint x="560" y="764.6666666666665" as="sourcePoint" />
            <mxPoint x="560" y="719" as="targetPoint" />
            <Array as="points">
              <mxPoint x="560" y="710" />
            </Array>
          </mxGeometry>
        </mxCell>
        <mxCell id="8Lm8nlZJwIXXHR8U6aLL-47" value="&lt;font style=&quot;font-size: 16px;&quot;&gt;&lt;b&gt;id_done&lt;/b&gt;&lt;/font&gt;" style="edgeLabel;html=1;align=center;verticalAlign=middle;resizable=0;points=[];labelBackgroundColor=none;" vertex="1" connectable="0" parent="8Lm8nlZJwIXXHR8U6aLL-46">
          <mxGeometry x="-0.2057" y="-1" relative="1" as="geometry">
            <mxPoint x="39" y="-1" as="offset" />
          </mxGeometry>
        </mxCell>
        <mxCell id="8Lm8nlZJwIXXHR8U6aLL-48" value="" style="shape=or;whiteSpace=wrap;html=1;" vertex="1" parent="1">
          <mxGeometry x="590" y="679" width="30" height="40" as="geometry" />
        </mxCell>
        <mxCell id="8Lm8nlZJwIXXHR8U6aLL-49" value="" style="endArrow=classic;html=1;rounded=0;exitX=1;exitY=0.5;exitDx=0;exitDy=0;entryX=-0.014;entryY=0.68;entryDx=0;entryDy=0;entryPerimeter=0;" edge="1" parent="1" target="8YfCgpXzdeuu5fyezBvx-6">
          <mxGeometry width="50" height="50" relative="1" as="geometry">
            <mxPoint x="320" y="698.8000000000001" as="sourcePoint" />
            <mxPoint x="400" y="700" as="targetPoint" />
          </mxGeometry>
        </mxCell>
        <mxCell id="8Lm8nlZJwIXXHR8U6aLL-50" value="&lt;font style=&quot;font-size: 16px;&quot;&gt;&lt;b&gt;if_vld&lt;/b&gt;&lt;/font&gt;" style="edgeLabel;html=1;align=center;verticalAlign=middle;resizable=0;points=[];labelBackgroundColor=none;" vertex="1" connectable="0" parent="8Lm8nlZJwIXXHR8U6aLL-49">
          <mxGeometry x="-0.2057" y="-1" relative="1" as="geometry">
            <mxPoint y="-21" as="offset" />
          </mxGeometry>
        </mxCell>
        <mxCell id="8Lm8nlZJwIXXHR8U6aLL-51" value="" style="endArrow=classic;html=1;rounded=0;exitX=1;exitY=0.5;exitDx=0;exitDy=0;entryX=0.455;entryY=0.653;entryDx=0;entryDy=0;entryPerimeter=0;" edge="1" parent="1">
          <mxGeometry width="50" height="50" relative="1" as="geometry">
            <mxPoint x="260" y="764.6666666666665" as="sourcePoint" />
            <mxPoint x="290" y="710" as="targetPoint" />
            <Array as="points">
              <mxPoint x="260" y="710" />
            </Array>
          </mxGeometry>
        </mxCell>
        <mxCell id="8Lm8nlZJwIXXHR8U6aLL-52" value="&lt;font style=&quot;font-size: 16px;&quot;&gt;&lt;b&gt;if_done&lt;/b&gt;&lt;/font&gt;" style="edgeLabel;html=1;align=center;verticalAlign=middle;resizable=0;points=[];labelBackgroundColor=none;" vertex="1" connectable="0" parent="8Lm8nlZJwIXXHR8U6aLL-51">
          <mxGeometry x="-0.2057" y="-1" relative="1" as="geometry">
            <mxPoint x="39" y="-1" as="offset" />
          </mxGeometry>
        </mxCell>
        <mxCell id="8Lm8nlZJwIXXHR8U6aLL-53" value="" style="shape=or;whiteSpace=wrap;html=1;" vertex="1" parent="1">
          <mxGeometry x="290" y="679" width="30" height="40" as="geometry" />
        </mxCell>
        <mxCell id="8Lm8nlZJwIXXHR8U6aLL-54" value="" style="endArrow=classic;html=1;rounded=0;exitX=1;exitY=0.5;exitDx=0;exitDy=0;entryX=0;entryY=0.375;entryDx=0;entryDy=0;entryPerimeter=0;" edge="1" parent="1" target="8Lm8nlZJwIXXHR8U6aLL-60">
          <mxGeometry width="50" height="50" relative="1" as="geometry">
            <mxPoint x="800" y="694" as="sourcePoint" />
            <mxPoint x="850" y="694" as="targetPoint" />
          </mxGeometry>
        </mxCell>
        <mxCell id="8Lm8nlZJwIXXHR8U6aLL-55" value="&lt;font style=&quot;font-size: 16px;&quot;&gt;&lt;b&gt;id_vld&lt;/b&gt;&lt;/font&gt;" style="edgeLabel;html=1;align=center;verticalAlign=middle;resizable=0;points=[];labelBackgroundColor=none;" vertex="1" connectable="0" parent="8Lm8nlZJwIXXHR8U6aLL-54">
          <mxGeometry x="-0.2057" y="-1" relative="1" as="geometry">
            <mxPoint x="13" y="-26" as="offset" />
          </mxGeometry>
        </mxCell>
        <mxCell id="8Lm8nlZJwIXXHR8U6aLL-56" value="" style="endArrow=classic;html=1;rounded=0;exitX=1;exitY=0.5;exitDx=0;exitDy=0;entryX=0;entryY=0.671;entryDx=0;entryDy=0;entryPerimeter=0;" edge="1" parent="1" target="8YfCgpXzdeuu5fyezBvx-2">
          <mxGeometry width="50" height="50" relative="1" as="geometry">
            <mxPoint x="900" y="698.8000000000001" as="sourcePoint" />
            <mxPoint x="979" y="699" as="targetPoint" />
          </mxGeometry>
        </mxCell>
        <mxCell id="8Lm8nlZJwIXXHR8U6aLL-57" value="&lt;font style=&quot;font-size: 16px;&quot;&gt;&lt;b&gt;ex_vld&lt;/b&gt;&lt;/font&gt;" style="edgeLabel;html=1;align=center;verticalAlign=middle;resizable=0;points=[];labelBackgroundColor=none;" vertex="1" connectable="0" parent="8Lm8nlZJwIXXHR8U6aLL-56">
          <mxGeometry x="-0.2057" y="-1" relative="1" as="geometry">
            <mxPoint y="-21" as="offset" />
          </mxGeometry>
        </mxCell>
        <mxCell id="8Lm8nlZJwIXXHR8U6aLL-58" value="" style="endArrow=classic;html=1;rounded=0;exitX=1;exitY=0.5;exitDx=0;exitDy=0;entryX=0.455;entryY=0.653;entryDx=0;entryDy=0;entryPerimeter=0;" edge="1" parent="1">
          <mxGeometry width="50" height="50" relative="1" as="geometry">
            <mxPoint x="840" y="764.6666666666665" as="sourcePoint" />
            <mxPoint x="870" y="710" as="targetPoint" />
            <Array as="points">
              <mxPoint x="840" y="710" />
            </Array>
          </mxGeometry>
        </mxCell>
        <mxCell id="8Lm8nlZJwIXXHR8U6aLL-59" value="&lt;font style=&quot;font-size: 16px;&quot;&gt;&lt;b&gt;ex_done&lt;/b&gt;&lt;/font&gt;" style="edgeLabel;html=1;align=center;verticalAlign=middle;resizable=0;points=[];labelBackgroundColor=none;" vertex="1" connectable="0" parent="8Lm8nlZJwIXXHR8U6aLL-58">
          <mxGeometry x="-0.2057" y="-1" relative="1" as="geometry">
            <mxPoint x="44" y="-1" as="offset" />
          </mxGeometry>
        </mxCell>
        <mxCell id="8Lm8nlZJwIXXHR8U6aLL-60" value="" style="shape=or;whiteSpace=wrap;html=1;" vertex="1" parent="1">
          <mxGeometry x="870" y="679" width="30" height="40" as="geometry" />
        </mxCell>
        <mxCell id="8Lm8nlZJwIXXHR8U6aLL-61" value="" style="endArrow=classic;html=1;rounded=0;exitX=1;exitY=0.5;exitDx=0;exitDy=0;entryX=0;entryY=0.375;entryDx=0;entryDy=0;entryPerimeter=0;" edge="1" parent="1" target="8Lm8nlZJwIXXHR8U6aLL-67">
          <mxGeometry width="50" height="50" relative="1" as="geometry">
            <mxPoint x="1090" y="694" as="sourcePoint" />
            <mxPoint x="1140" y="694" as="targetPoint" />
          </mxGeometry>
        </mxCell>
        <mxCell id="8Lm8nlZJwIXXHR8U6aLL-62" value="&lt;font style=&quot;font-size: 16px;&quot;&gt;&lt;b&gt;ex_vld&lt;/b&gt;&lt;/font&gt;" style="edgeLabel;html=1;align=center;verticalAlign=middle;resizable=0;points=[];labelBackgroundColor=none;" vertex="1" connectable="0" parent="8Lm8nlZJwIXXHR8U6aLL-61">
          <mxGeometry x="-0.2057" y="-1" relative="1" as="geometry">
            <mxPoint x="13" y="-16" as="offset" />
          </mxGeometry>
        </mxCell>
        <mxCell id="8Lm8nlZJwIXXHR8U6aLL-63" value="" style="endArrow=classic;html=1;rounded=0;exitX=1;exitY=0.5;exitDx=0;exitDy=0;" edge="1" parent="1">
          <mxGeometry width="50" height="50" relative="1" as="geometry">
            <mxPoint x="1190" y="698.8000000000001" as="sourcePoint" />
            <mxPoint x="1230" y="699" as="targetPoint" />
          </mxGeometry>
        </mxCell>
        <mxCell id="8Lm8nlZJwIXXHR8U6aLL-64" value="&lt;font style=&quot;font-size: 16px;&quot;&gt;&lt;b&gt;mem_vld&lt;/b&gt;&lt;/font&gt;" style="edgeLabel;html=1;align=center;verticalAlign=middle;resizable=0;points=[];labelBackgroundColor=none;" vertex="1" connectable="0" parent="8Lm8nlZJwIXXHR8U6aLL-63">
          <mxGeometry x="-0.2057" y="-1" relative="1" as="geometry">
            <mxPoint x="-16" y="-37" as="offset" />
          </mxGeometry>
        </mxCell>
        <mxCell id="8Lm8nlZJwIXXHR8U6aLL-65" value="" style="endArrow=classic;html=1;rounded=0;exitX=1;exitY=0.5;exitDx=0;exitDy=0;entryX=0.455;entryY=0.653;entryDx=0;entryDy=0;entryPerimeter=0;" edge="1" parent="1">
          <mxGeometry width="50" height="50" relative="1" as="geometry">
            <mxPoint x="1130" y="764.6666666666665" as="sourcePoint" />
            <mxPoint x="1160" y="710" as="targetPoint" />
            <Array as="points">
              <mxPoint x="1130" y="710" />
            </Array>
          </mxGeometry>
        </mxCell>
        <mxCell id="8Lm8nlZJwIXXHR8U6aLL-66" value="&lt;font style=&quot;font-size: 16px;&quot;&gt;&lt;b&gt;mem_done&lt;/b&gt;&lt;/font&gt;" style="edgeLabel;html=1;align=center;verticalAlign=middle;resizable=0;points=[];labelBackgroundColor=none;" vertex="1" connectable="0" parent="8Lm8nlZJwIXXHR8U6aLL-65">
          <mxGeometry x="-0.2057" y="-1" relative="1" as="geometry">
            <mxPoint x="29" y="49" as="offset" />
          </mxGeometry>
        </mxCell>
        <mxCell id="8Lm8nlZJwIXXHR8U6aLL-67" value="" style="shape=or;whiteSpace=wrap;html=1;" vertex="1" parent="1">
          <mxGeometry x="1160" y="679" width="30" height="40" as="geometry" />
        </mxCell>
        <mxCell id="8Lm8nlZJwIXXHR8U6aLL-68" value="" style="endArrow=classic;html=1;rounded=0;exitX=1;exitY=0.5;exitDx=0;exitDy=0;entryX=0;entryY=0.375;entryDx=0;entryDy=0;entryPerimeter=0;" edge="1" parent="1" target="8Lm8nlZJwIXXHR8U6aLL-74">
          <mxGeometry width="50" height="50" relative="1" as="geometry">
            <mxPoint x="1310" y="694" as="sourcePoint" />
            <mxPoint x="1360" y="694" as="targetPoint" />
          </mxGeometry>
        </mxCell>
        <mxCell id="8Lm8nlZJwIXXHR8U6aLL-69" value="&lt;font style=&quot;font-size: 16px;&quot;&gt;&lt;b&gt;mem_vld&lt;/b&gt;&lt;/font&gt;" style="edgeLabel;html=1;align=center;verticalAlign=middle;resizable=0;points=[];labelBackgroundColor=none;" vertex="1" connectable="0" parent="8Lm8nlZJwIXXHR8U6aLL-68">
          <mxGeometry x="-0.2057" y="-1" relative="1" as="geometry">
            <mxPoint x="23" y="-26" as="offset" />
          </mxGeometry>
        </mxCell>
        <mxCell id="8Lm8nlZJwIXXHR8U6aLL-70" value="" style="endArrow=classic;html=1;rounded=0;exitX=1;exitY=0.5;exitDx=0;exitDy=0;" edge="1" parent="1">
          <mxGeometry width="50" height="50" relative="1" as="geometry">
            <mxPoint x="1410" y="698.8000000000001" as="sourcePoint" />
            <mxPoint x="630" y="860" as="targetPoint" />
            <Array as="points">
              <mxPoint x="1480" y="699" />
              <mxPoint x="1480" y="920" />
              <mxPoint x="630" y="920" />
            </Array>
          </mxGeometry>
        </mxCell>
        <mxCell id="8Lm8nlZJwIXXHR8U6aLL-71" value="&lt;font style=&quot;font-size: 16px;&quot;&gt;&lt;b&gt;wb_vld&lt;/b&gt;&lt;/font&gt;" style="edgeLabel;html=1;align=center;verticalAlign=middle;resizable=0;points=[];labelBackgroundColor=none;" vertex="1" connectable="0" parent="8Lm8nlZJwIXXHR8U6aLL-70">
          <mxGeometry x="-0.2057" y="-1" relative="1" as="geometry">
            <mxPoint x="146" y="-240" as="offset" />
          </mxGeometry>
        </mxCell>
        <mxCell id="8Lm8nlZJwIXXHR8U6aLL-72" value="" style="endArrow=classic;html=1;rounded=0;exitX=1;exitY=0.5;exitDx=0;exitDy=0;entryX=0.455;entryY=0.653;entryDx=0;entryDy=0;entryPerimeter=0;" edge="1" parent="1">
          <mxGeometry width="50" height="50" relative="1" as="geometry">
            <mxPoint x="1350" y="764.6666666666665" as="sourcePoint" />
            <mxPoint x="1380" y="710" as="targetPoint" />
            <Array as="points">
              <mxPoint x="1350" y="710" />
            </Array>
          </mxGeometry>
        </mxCell>
        <mxCell id="8Lm8nlZJwIXXHR8U6aLL-73" value="&lt;font style=&quot;font-size: 16px;&quot;&gt;&lt;b&gt;wb_done&lt;/b&gt;&lt;/font&gt;" style="edgeLabel;html=1;align=center;verticalAlign=middle;resizable=0;points=[];labelBackgroundColor=none;" vertex="1" connectable="0" parent="8Lm8nlZJwIXXHR8U6aLL-72">
          <mxGeometry x="-0.2057" y="-1" relative="1" as="geometry">
            <mxPoint x="39" y="9" as="offset" />
          </mxGeometry>
        </mxCell>
        <mxCell id="8Lm8nlZJwIXXHR8U6aLL-74" value="" style="shape=or;whiteSpace=wrap;html=1;" vertex="1" parent="1">
          <mxGeometry x="1380" y="679" width="30" height="40" as="geometry" />
        </mxCell>
        <mxCell id="8Lm8nlZJwIXXHR8U6aLL-75" value="" style="endArrow=classic;html=1;rounded=0;exitX=0.286;exitY=1;exitDx=0;exitDy=0;exitPerimeter=0;" edge="1" parent="1" source="8Lm8nlZJwIXXHR8U6aLL-78">
          <mxGeometry width="50" height="50" relative="1" as="geometry">
            <mxPoint x="600" y="870" as="sourcePoint" />
            <mxPoint x="1400" y="380" as="targetPoint" />
            <Array as="points">
              <mxPoint x="600" y="930" />
              <mxPoint x="1490" y="930" />
              <mxPoint x="1490" y="380" />
            </Array>
          </mxGeometry>
        </mxCell>
        <mxCell id="8Lm8nlZJwIXXHR8U6aLL-76" value="&lt;font style=&quot;font-size: 16px;&quot;&gt;&lt;b&gt;regfile_rdy&lt;/b&gt;&lt;/font&gt;" style="edgeLabel;html=1;align=center;verticalAlign=middle;resizable=0;points=[];labelBackgroundColor=none;" vertex="1" connectable="0" parent="8Lm8nlZJwIXXHR8U6aLL-75">
          <mxGeometry x="-0.2096" y="-1" relative="1" as="geometry">
            <mxPoint x="288" y="-571" as="offset" />
          </mxGeometry>
        </mxCell>
        <mxCell id="8Lm8nlZJwIXXHR8U6aLL-77" value="" style="group" vertex="1" connectable="0" parent="1">
          <mxGeometry x="580" y="780" width="70" height="86" as="geometry" />
        </mxCell>
        <mxCell id="8Lm8nlZJwIXXHR8U6aLL-78" value="regfile" style="whiteSpace=wrap;html=1;shadow=1;fontSize=18;fillColor=#f5f5f5;strokeColor=#666666;" vertex="1" parent="8Lm8nlZJwIXXHR8U6aLL-77">
          <mxGeometry width="70" height="80" as="geometry" />
        </mxCell>
        <mxCell id="8Lm8nlZJwIXXHR8U6aLL-79" value="" style="triangle;whiteSpace=wrap;html=1;direction=north;" vertex="1" parent="8Lm8nlZJwIXXHR8U6aLL-77">
          <mxGeometry x="24.230769230769234" y="64" width="21.53846153846154" height="16" as="geometry" />
        </mxCell>
        <mxCell id="8Lm8nlZJwIXXHR8U6aLL-80" value="" style="ellipse;shape=cloud;whiteSpace=wrap;html=1;fontSize=18;fillColor=#f5f5f5;strokeColor=#666666;shadow=1;" vertex="1" parent="1">
          <mxGeometry x="170" y="355" width="70" height="50" as="geometry" />
        </mxCell>
        <mxCell id="8Lm8nlZJwIXXHR8U6aLL-81" value="" style="ellipse;shape=cloud;whiteSpace=wrap;html=1;fontSize=18;fillColor=#f5f5f5;strokeColor=#666666;shadow=1;" vertex="1" parent="1">
          <mxGeometry x="550" y="355" width="70" height="50" as="geometry" />
        </mxCell>
        <mxCell id="8Lm8nlZJwIXXHR8U6aLL-82" value="" style="ellipse;shape=cloud;whiteSpace=wrap;html=1;fontSize=18;fillColor=#f5f5f5;strokeColor=#666666;shadow=1;" vertex="1" parent="1">
          <mxGeometry x="850" y="355" width="70" height="50" as="geometry" />
        </mxCell>
        <mxCell id="8Lm8nlZJwIXXHR8U6aLL-83" value="" style="ellipse;shape=cloud;whiteSpace=wrap;html=1;fontSize=18;fillColor=#f5f5f5;strokeColor=#666666;shadow=1;" vertex="1" parent="1">
          <mxGeometry x="1110" y="355" width="70" height="50" as="geometry" />
        </mxCell>
        <mxCell id="8Lm8nlZJwIXXHR8U6aLL-84" value="" style="ellipse;shape=cloud;whiteSpace=wrap;html=1;fontSize=18;fillColor=#f5f5f5;strokeColor=#666666;shadow=1;" vertex="1" parent="1">
          <mxGeometry x="1340" y="355" width="70" height="50" as="geometry" />
        </mxCell>
        <mxCell id="8Lm8nlZJwIXXHR8U6aLL-87" value="" style="endArrow=classic;html=1;rounded=0;exitX=0.5;exitY=1;exitDx=0;exitDy=0;entryX=0.75;entryY=0;entryDx=0;entryDy=0;" edge="1" parent="1" source="8YfCgpXzdeuu5fyezBvx-86" target="8Lm8nlZJwIXXHR8U6aLL-6">
          <mxGeometry width="50" height="50" relative="1" as="geometry">
            <mxPoint x="760" y="670" as="sourcePoint" />
            <mxPoint x="810" y="620" as="targetPoint" />
            <Array as="points">
              <mxPoint x="770" y="290" />
              <mxPoint x="320" y="290" />
              <mxPoint x="320" y="600" />
              <mxPoint x="208" y="600" />
            </Array>
          </mxGeometry>
        </mxCell>
        <mxCell id="8Lm8nlZJwIXXHR8U6aLL-96" value="&lt;font style=&quot;font-size: 16px;&quot;&gt;&lt;b&gt;flush/stall&lt;/b&gt;&lt;/font&gt;" style="edgeLabel;html=1;align=center;verticalAlign=middle;resizable=0;points=[];" vertex="1" connectable="0" parent="8Lm8nlZJwIXXHR8U6aLL-87">
          <mxGeometry x="-0.9572" y="-3" relative="1" as="geometry">
            <mxPoint x="43" as="offset" />
          </mxGeometry>
        </mxCell>
        <mxCell id="8Lm8nlZJwIXXHR8U6aLL-88" value="" style="endArrow=classic;html=1;rounded=0;entryX=0.375;entryY=0.002;entryDx=0;entryDy=0;entryPerimeter=0;" edge="1" parent="1" target="8YfCgpXzdeuu5fyezBvx-6">
          <mxGeometry width="50" height="50" relative="1" as="geometry">
            <mxPoint x="430" y="290" as="sourcePoint" />
            <mxPoint x="430" y="400" as="targetPoint" />
          </mxGeometry>
        </mxCell>
        <mxCell id="8Lm8nlZJwIXXHR8U6aLL-89" value="" style="endArrow=classic;html=1;rounded=0;entryX=0.375;entryY=0.002;entryDx=0;entryDy=0;entryPerimeter=0;" edge="1" parent="1">
          <mxGeometry width="50" height="50" relative="1" as="geometry">
            <mxPoint x="769.6600000000001" y="291" as="sourcePoint" />
            <mxPoint x="769.6600000000001" y="411" as="targetPoint" />
          </mxGeometry>
        </mxCell>
        <mxCell id="8Lm8nlZJwIXXHR8U6aLL-90" value="" style="endArrow=classic;html=1;rounded=0;entryX=0.375;entryY=0.002;entryDx=0;entryDy=0;entryPerimeter=0;" edge="1" parent="1">
          <mxGeometry width="50" height="50" relative="1" as="geometry">
            <mxPoint x="770" y="290" as="sourcePoint" />
            <mxPoint x="1049.66" y="411" as="targetPoint" />
            <Array as="points">
              <mxPoint x="1050" y="290" />
            </Array>
          </mxGeometry>
        </mxCell>
        <mxCell id="8Lm8nlZJwIXXHR8U6aLL-91" value="" style="endArrow=classic;html=1;rounded=0;entryX=0.375;entryY=0.002;entryDx=0;entryDy=0;entryPerimeter=0;" edge="1" parent="1">
          <mxGeometry width="50" height="50" relative="1" as="geometry">
            <mxPoint x="990" y="290" as="sourcePoint" />
            <mxPoint x="1269.66" y="411" as="targetPoint" />
            <Array as="points">
              <mxPoint x="1270" y="290" />
            </Array>
          </mxGeometry>
        </mxCell>
        <mxCell id="8Lm8nlZJwIXXHR8U6aLL-92" value="" style="shape=waypoint;sketch=0;fillStyle=solid;size=6;pointerEvents=1;points=[];fillColor=none;resizable=0;rotatable=0;perimeter=centerPerimeter;snapToPoint=1;" vertex="1" parent="1">
          <mxGeometry x="420" y="280" width="20" height="20" as="geometry" />
        </mxCell>
        <mxCell id="8Lm8nlZJwIXXHR8U6aLL-93" value="" style="shape=waypoint;sketch=0;fillStyle=solid;size=6;pointerEvents=1;points=[];fillColor=none;resizable=0;rotatable=0;perimeter=centerPerimeter;snapToPoint=1;" vertex="1" parent="1">
          <mxGeometry x="760" y="280" width="20" height="20" as="geometry" />
        </mxCell>
        <mxCell id="8Lm8nlZJwIXXHR8U6aLL-94" value="" style="shape=waypoint;sketch=0;fillStyle=solid;size=6;pointerEvents=1;points=[];fillColor=none;resizable=0;rotatable=0;perimeter=centerPerimeter;snapToPoint=1;" vertex="1" parent="1">
          <mxGeometry x="1040" y="280" width="20" height="20" as="geometry" />
        </mxCell>
        <mxCell id="8Lm8nlZJwIXXHR8U6aLL-95" value="" style="shape=waypoint;sketch=0;fillStyle=solid;size=6;pointerEvents=1;points=[];fillColor=none;resizable=0;rotatable=0;perimeter=centerPerimeter;snapToPoint=1;" vertex="1" parent="1">
          <mxGeometry x="1260" y="280" width="20" height="20" as="geometry" />
        </mxCell>
      </root>
    </mxGraphModel>
  </diagram>
</mxfile>
